<svg width="1200" height="214" viewBox="0 0 1200 214" fill="none" xmlns="http://www.w3.org/2000/svg">
<g id="Logo-Blue 2" clip-path="url(#clip0_648_668)">
<g id="Icon">
<path id="Vector" fill-rule="evenodd" clip-rule="evenodd" d="M195.975 114.84C198.729 127.651 195.546 141.021 187.32 151.214C179.094 161.407 166.702 167.331 153.611 167.331H43.3341C30.242 167.331 17.851 161.407 9.62479 151.214C1.39771 141.021 -1.78396 127.651 0.969403 114.84L20.3871 24.4863C21.2912 20.2786 24.1781 16.7711 28.1319 15.0782C32.0856 13.3845 36.6142 13.7156 40.2797 15.9662L98.4723 51.6913L156.665 15.9662C160.33 13.7156 164.859 13.3845 168.813 15.0782C172.766 16.7711 175.653 20.2786 176.557 24.4863L195.975 114.84ZM151.359 94.0001C151.359 87.4542 146.056 82.1476 139.516 82.1476H116.7C110.159 82.1476 104.858 87.4542 104.858 94.0001V116.836C104.858 123.382 110.159 128.688 116.7 128.688H139.516C146.056 128.688 151.359 123.382 151.359 116.836V94.0001ZM92.0861 94.0001C92.0861 87.4542 86.7852 82.1476 80.2444 82.1476H57.4286C50.8882 82.1476 45.586 87.4542 45.586 94.0001V116.836C45.586 123.382 50.8882 128.688 57.4286 128.688H80.2444C86.7852 128.688 92.0861 123.382 92.0861 116.836V94.0001Z" fill="#0185FF"/>
</g>
<g id="Wordmark">
<path id="Vector_2" d="M315.493 9.02637C279.414 9.02637 257.826 29.7923 257.826 57.2851C257.826 86.471 282.558 96.9698 300.8 103.899C315.703 109.778 326.619 113.978 326.619 123.217C326.619 131.616 318.012 137.704 303.318 137.704C286.75 137.704 269.773 130.355 258.664 120.907V158.47C269.773 166.231 287.798 172.314 307.516 172.314C344.436 172.314 367.072 151.549 367.072 121.957C367.072 90.4605 340.872 80.3816 319.272 72.403C304.787 66.7337 297.02 63.374 297.02 56.0248C297.02 48.4659 304.998 43.6361 318.222 43.6361C331.44 43.6361 347.579 48.256 357.64 55.3953V19.7241C346.741 13.4315 331.86 9.02637 315.493 9.02637Z" fill="#0185FF"/>
<path id="Vector_3" d="M373.418 213.037H412.403V153.016C419.328 164.133 433.179 172.104 448.079 172.104C475.342 172.104 499.236 147.982 499.236 110.415C499.236 72.8219 474.293 48.4902 447.031 48.4902C430.029 48.4902 417.439 57.5098 410.097 68.2075L406.534 51.6391H373.418V213.037ZM411.983 110.403C411.983 94.4406 421.846 83.3094 435.694 83.3094C449.758 83.3094 459.828 94.8608 459.828 110.192C459.828 125.314 449.758 137.284 435.488 137.284C421.846 137.284 411.983 125.943 411.983 110.403Z" fill="#0185FF"/>
<path id="Vector_4" d="M555.844 172.104C573.471 172.104 585.644 163.084 592.776 152.387H592.982L596.757 168.955H629.875V51.6391H596.757L592.982 68.2075H592.776C585.644 57.5098 573.471 48.4902 555.844 48.4902C529.631 48.4902 504.058 73.4515 504.058 110.599C504.058 147.143 529.631 172.104 555.844 172.104ZM543.46 110.415C543.46 95.2811 553.536 83.3094 567.806 83.3094C581.445 83.3094 591.516 94.6512 591.516 110.403C591.516 125.944 581.445 137.284 567.806 137.284C553.536 137.284 543.46 125.739 543.46 110.415Z" fill="#0185FF"/>
<path id="Vector_5" d="M675.401 110.403C675.401 93.8107 688.405 83.3094 704.765 83.3094C714.836 83.3094 724.065 85.8301 733.711 91.9208V56.6704C723.435 51.0073 710.431 48.4902 698.682 48.4902C663.668 48.4902 635.999 73.8706 635.999 110.192C635.999 146.514 663.457 172.104 698.682 172.104C710.849 172.104 723.641 169.168 733.711 163.924V128.674C724.065 135.604 714.206 137.284 704.977 137.284C688.405 137.284 675.401 126.994 675.401 110.403Z" fill="#0185FF"/>
<path id="Vector_6" d="M805.247 172.104C820.135 172.104 833.756 168.958 845.706 162.457V131.604C835.013 137.489 823.28 141.903 810.488 141.903C794.339 141.903 780.494 134.967 775.464 120.885H852.414C853.038 117.111 853.462 112.917 853.462 108.305C853.462 69.2539 828.516 48.4902 797.903 48.4902C764.138 48.4902 738.131 73.6585 738.131 110.611C738.131 146.097 762.248 172.104 805.247 172.104ZM774.622 98.45C777.767 86.2586 786.995 78.692 797.696 78.692C808.81 78.692 816.154 86.6789 816.572 98.45H774.622Z" fill="#0185FF"/>
<path id="Vector_7" d="M898.785 0H859.797V168.955H892.918L896.479 152.387C903.819 163.084 916.41 172.104 933.195 172.104C960.457 172.104 985.614 147.982 985.614 110.402C985.614 72.612 962.138 48.4902 935.092 48.4902C920.188 48.4902 905.708 56.4611 898.785 67.5779V0ZM898.36 110.402C898.36 94.651 908.23 83.3101 921.869 83.3101C936.141 83.3101 946.21 95.281 946.21 110.612C946.21 125.734 936.141 137.284 922.077 137.284C908.23 137.284 898.36 126.154 898.36 110.402Z" fill="#0185FF"/>
<path id="Vector_8" d="M1042.22 172.104C1059.85 172.104 1072.02 163.084 1079.15 152.387H1079.36L1083.14 168.955H1116.25V51.6391H1083.14L1079.36 68.2075H1079.15C1072.02 57.5098 1059.85 48.4902 1042.22 48.4902C1016.01 48.4902 990.433 73.4515 990.433 110.599C990.433 147.143 1016.01 172.104 1042.22 172.104ZM1029.84 110.415C1029.84 95.2811 1039.91 83.3094 1054.19 83.3094C1067.83 83.3094 1077.89 94.6512 1077.89 110.403C1077.89 125.944 1067.83 137.284 1054.19 137.284C1039.91 137.284 1029.84 125.739 1029.84 110.415Z" fill="#0185FF"/>
<path id="Vector_9" d="M1124.31 168.955H1163.3V115.019C1163.3 93.5959 1176.09 86.4583 1189.72 86.4583C1193.08 86.4583 1196.65 86.8785 1200 87.7182V51.4293C1197.27 50.5887 1194.55 50.3794 1190.98 50.3794C1180.29 50.3794 1167.29 54.9955 1159.52 68.8471H1159.11L1155.34 51.6391H1124.31V168.955Z" fill="#0185FF"/>
</g>
</g>
<defs>
<clipPath id="clip0_648_668">
<rect width="1200" height="213.037" fill="white"/>
</clipPath>
</defs>
</svg>
